<svg width="800" height="234" viewBox="0 0 800 234" fill="none" xmlns="http://www.w3.org/2000/svg">
<path d="M479 92.799H497.204V100.155C501.661 94.2105 507.166 91.4769 514.27 91.4769C520.914 91.4769 525.46 94.1211 529.257 100.155C534.093 94.2105 539.688 91.3774 547.082 91.3774C558.931 91.3774 565.766 97.7991 565.766 108.734V142.89H546.042V116.09C546.042 109.956 544.144 107.123 539.308 107.123C534.472 107.123 532.194 110.046 532.194 116.279V142.89H512.561V116.756C512.561 110.056 510.663 107.133 505.547 107.133C501.091 107.133 498.723 110.155 498.723 116V142.89H479V92.789V92.799Z" fill="#12181F"/>
<path d="M607.879 138.089C602.754 142.622 596.969 144.689 589.575 144.689C578.105 144.689 571.75 138.844 571.75 128.745C571.75 117.611 578.764 114.5 593.652 112.611C603.323 111.388 607.5 111.855 607.5 107.233C607.5 104.311 605.132 103.078 600.296 103.078C596.119 103.078 593.941 104.678 593.562 108.078H574.028C574.218 96.8451 583.32 91 600.965 91C610.167 91 617.181 92.9782 620.598 95.2447C625.914 98.8332 627.043 102.601 627.043 109.301V137.234C627.043 139.023 627.802 140.534 629.221 141.479V142.89H609.118L607.889 138.079L607.879 138.089ZM592.133 128.178C592.133 131.011 594.121 132.711 597.818 132.711C604.552 132.711 607.4 129.689 607.4 123.088C607.4 122.243 607.4 121.389 607.3 120.544C598.008 124.033 592.123 123.377 592.123 128.188L592.133 128.178Z" fill="#12181F"/>
<path d="M635.855 92.7991H653.59V99.2109C657.577 93.833 662.692 91.4771 669.906 91.4771C682.705 91.4771 691.807 101.855 691.807 117.989C691.807 134.122 682.985 144.6 669.516 144.6C663.352 144.6 658.806 142.622 655.289 138.188V163H635.845V92.7991H635.855ZM663.741 106.388C657.767 106.388 655.299 110.066 655.299 117.989C655.299 125.911 658.046 129.311 663.552 129.311C669.057 129.311 671.804 125.534 671.804 117.989C671.804 110.444 669.247 106.388 663.741 106.388Z" fill="#12181F"/>
<path d="M714.098 127.144C714.098 131.389 716.276 133.466 720.643 133.466C725.009 133.466 727.187 131.955 727.187 129.311C727.187 125.723 724.339 125.345 718.744 124.122C703.188 120.822 695.984 118.088 695.984 107.511C695.984 96.9346 704.427 91 720.733 91C735.81 91 744.063 96.3779 745.291 106.756H727.277C726.997 103.833 724.529 101.845 720.922 101.845C717.316 101.845 715.517 103.167 715.517 105.334C715.517 108.923 718.834 108.923 725.099 110.335C740.086 113.734 747 116.468 747 127.313C747 138.725 737.988 144.669 720.353 144.669C704.037 144.669 695.504 138.824 694.655 127.124H714.098V127.144Z" fill="#12181F"/>
<path d="M261.538 110.286C261.538 101.548 259.926 97.4219 252.417 97.4219C244.436 97.4219 239.68 102.498 239.68 111.513V140.536H231.219V110.296C231.219 101.558 229.607 97.4318 222.097 97.4318C214.207 97.4318 209.361 102.597 209.361 111.523V140.546H201V91.4253H208.98V98.3719C212.685 92.8304 217.632 90.1982 224.47 90.1982C230.739 90.1982 234.924 92.6424 238.058 97.8969C242.334 92.6325 247.28 90.1982 254.029 90.1982C260.777 90.1982 265.434 92.6424 267.907 96.8678C269.809 100.252 269.899 104.378 269.899 109.643V140.546H261.538V110.306V110.286Z" fill="#12181F"/>
<path d="M321.406 124.654C319.604 135.549 311.333 142.119 299.638 142.119C285.95 142.119 277.299 132.442 277.299 116.48C277.299 99.48 285.95 89.8022 299.638 89.8022C313.326 89.8022 322.067 98.7279 322.067 114.689C322.067 115.906 322.067 117.133 321.977 118.351H286.05C286.24 128.78 291.567 134.599 300.399 134.599C307.238 134.599 311.804 131.027 313.135 124.644H321.406V124.654ZM313.326 111.503C313.235 102.201 308.379 97.1348 299.928 97.1348C291.477 97.1348 286.811 102.112 286.05 111.503H313.326Z" fill="#12181F"/>
<path d="M328.826 91.4052H336.906V100.232C339.57 93.5624 344.126 90.3662 350.684 90.3662C351.445 90.3662 352.106 90.3662 352.867 90.4553V99.1929C352.206 99.1039 351.535 99.1039 350.874 99.1039C341.943 99.1039 337.186 103.992 337.186 113.195V140.526H328.826V91.4052Z" fill="#12181F"/>
<path d="M377.479 142.119C364.171 142.119 355.14 131.789 355.14 115.817C355.14 99.8461 364.071 89.8022 377.569 89.8022C385.079 89.8022 389.544 92.9985 393.249 97.5998V91.4053H401.33V139.497C401.33 154.429 394.671 161 378.14 161C364.742 161 357.132 155.458 357.132 146.632V146.256H365.303V146.444C365.303 151.52 369.679 154.053 378.42 154.053C389.164 154.053 393.249 150.204 393.249 141.278V134.52C389.354 139.596 384.127 142.129 377.469 142.129L377.479 142.119ZM363.891 116.005C363.891 127.929 369.498 134.698 378.62 134.698C388.793 134.698 393.54 128.78 393.54 116.292C393.54 103.804 388.403 97.2238 378.52 97.2238C369.208 97.2238 363.881 103.794 363.881 116.005H363.891Z" fill="#12181F"/>
<path d="M411.222 73H419.583V82.3908H411.222V73ZM411.222 91.4055H419.583V140.526H411.222V91.4055Z" fill="#12181F"/>
<path d="M462.539 110.286C462.539 101.548 460.546 97.5111 452.556 97.5111C443.334 97.5111 437.827 102.865 437.827 112.542V140.536H429.466V91.4155H437.446V98.5501C441.251 92.9196 446.478 90.1885 453.417 90.1885C460.927 90.1885 466.054 92.4446 468.817 96.858C470.91 100.054 471 103.904 471 108.693V140.536H462.539V110.296V110.286Z" fill="#12181F"/>
<path d="M117 159.67H159.66V74.34H117V53H181V181H117V159.67Z" fill="#73D19C"/>
<path d="M82.4724 117C82.4724 136.072 97.9279 151.517 116.99 151.517V82.4819C97.9179 82.4819 82.4724 97.9374 82.4724 117Z" fill="#73D19C"/>
<path d="M117 159.67H74.33V74.34H117V53H53V181H117V159.67Z" fill="#12181F"/>
<path d="M151.518 117C151.518 136.072 136.062 151.517 117 151.517V82.4819C136.072 82.4819 151.518 97.9374 151.518 117Z" fill="#12181F"/>
</svg>
